<?xml version="1.0" standalone="no"?>
<!DOCTYPE svg PUBLIC "-//W3C//DTD SVG 1.1//EN" "http://www.w3.org/Graphics/SVG/1.1/DTD/svg11.dtd" >
<svg xmlns="http://www.w3.org/2000/svg" xmlns:xlink="http://www.w3.org/1999/xlink" version="1.1">
<metadata>
Created by FontForge 20190801 at Mon Jun 15 20:21:29 2020
 By Jimmy Wärting
2019 Iconian Fonts - www.iconian.com
</metadata>
<defs>
<font id="AstroArmada" horiz-adv-x="612" >
  <font-face 
    font-family="Astro Armada"
    font-weight="400"
    font-stretch="normal"
    units-per-em="1000"
    panose-1="0 0 0 0 0 0 0 0 0 0"
    ascent="800"
    descent="-200"
    x-height="600"
    cap-height="600"
    bbox="-78 -169 1187 777"
    underline-thickness="50"
    underline-position="-125"
    unicode-range="U+0020-2122"
  />
<missing-glyph horiz-adv-x="500" 
 />
    <glyph glyph-name=".notdef" horiz-adv-x="500" 
 />
    <glyph glyph-name=".null" horiz-adv-x="0" 
 />
    <glyph glyph-name="nonmarkingreturn" horiz-adv-x="500" 
 />
    <glyph glyph-name="space" unicode=" " horiz-adv-x="276" 
 />
    <glyph glyph-name="space" unicode="&#xa0;" horiz-adv-x="276" 
 />
    <glyph glyph-name="FL0021h" unicode="!" horiz-adv-x="217" 
d="M31 199v401h155v-401h-155zM31 125h155v-125h-155v125z" />
    <glyph glyph-name="FL0022h" unicode="&#x22;" horiz-adv-x="417" 
d="M386 600h-155v-217h35q23 0 45 7.5t38.5 21t26.5 32t10 39.5v117zM186 600h-155v-217h35q23 0 45 7.5t38.5 21t26.5 32t10 39.5v117z" />
    <glyph glyph-name="FL0023h" unicode="#" horiz-adv-x="676" 
d="M31 469v-125h97v-87h-97v-125h97v-132h155v132h109v-132h155v132h98v125h-98v87h98v125h-98v131h-155v-131h-109v131h-155v-131h-97zM283 344h109v-87h-109v87z" />
    <glyph glyph-name="FL0025h" unicode="$" horiz-adv-x="582" 
d="M186 401v14q0 18 10 28t22 10h332v125h-197v91h-125v-91h-77q-20 0 -41 -8.5t-38.5 -22.5t-29 -32t-11.5 -37v-140q0 -19 11.5 -37t29 -32t38.5 -22.5t41 -8.5h220q25 -7 25 -39v-14q0 -20 -10 -28.5t-22 -9.5h-332v-125h196v-92h125v92h78q19 0 40.5 8.5t39 22.5t29 32
t11.5 37v140q0 19 -11.5 37t-29 32.5t-39 23t-40.5 8.5h-216q-11 2 -20 10t-9 28z" />
    <glyph glyph-name="FL002Ah" unicode="%" horiz-adv-x="888" 
d="M208 0l308 600h164l-308 -600h-164zM857 275v-220q0 -11 -6 -20.5t-16 -17.5t-21.5 -12.5t-22.5 -4.5h-171q-11 0 -22.5 4.5t-21 12.5t-16 17.5t-6.5 20.5v220q0 10 6.5 20t16 18t21 12.5t22.5 4.5h171q11 0 22.5 -4.5t21.5 -12.5t16 -18t6 -20zM678 209v-88
q0 -12 6 -16.5t14 -4.5h17q7 0 12.5 5t5.5 16v88q0 11 -5.5 16t-12.5 5h-17q-8 0 -14 -4.5t-6 -16.5zM334 545v-220q0 -11 -6 -20.5t-16 -17.5t-21.5 -12.5t-22.5 -4.5h-171q-11 0 -22.5 4.5t-21 12.5t-16 17.5t-6.5 20.5v220q0 10 6.5 20t16 18t21 12.5t22.5 4.5h171
q11 0 22.5 -4.5t21.5 -12.5t16 -18t6 -20zM155 479v-88q0 -12 6 -16.5t14 -4.5h17q7 0 12.5 5t5.5 16v88q0 11 -5.5 16t-12.5 5h-17q-8 0 -14 -4.5t-6 -16.5z" />
    <glyph glyph-name="FL0026h" unicode="&#x26;" horiz-adv-x="641" 
d="M610 241v125h-344l62 -125h47q14 0 25 -8t11 -30v-40q0 -20 -10 -28.5t-22 -9.5h-157q-14 0 -25 8t-11 30v274q0 22 11 30t25 8h344v125h-415q-19 0 -40 -8t-38 -21.5t-29 -31t-13 -35.5v-119q0 -26 18.5 -48.5t45.5 -36.5q-27 -14 -45.5 -36.5t-18.5 -48.5v-119
q1 -19 13 -36t29 -30.5t38 -21.5t40 -8h295q19 0 40.5 8.5t39 22.5t29 32t11.5 37v141h44z" />
    <glyph glyph-name="FL0027h" unicode="'" horiz-adv-x="217" 
d="M186 600h-155v-217h35q23 0 45 7.5t38.5 21t26.5 32t10 39.5v117z" />
    <glyph glyph-name="FL0028h" unicode="(" horiz-adv-x="386" 
d="M186 163q0 -22 11 -30t25 -8h133v-125h-204q-20 0 -41 8.5t-38.5 22.5t-29 32t-11.5 37v400q0 19 11.5 37t29 32t38.5 22.5t41 8.5h204v-125h-133q-14 0 -25 -8t-11 -30v-274z" />
    <glyph glyph-name="FL0029h" unicode=")" horiz-adv-x="386" 
d="M200 163q0 -22 -11 -30t-25 -8h-133v-125h204q19 0 40.5 8.5t39 22.5t29 32t11.5 37v400q0 19 -11.5 37t-29 32t-39 22.5t-40.5 8.5h-204v-125h133q14 0 25 -8t11 -30v-274z" />
    <glyph glyph-name="FL0F98h" unicode="*" horiz-adv-x="256" 
d="M150 455l-27 40l-28 -40l-64 48l37 36l-42 11l23 72l39 -19l-6 44h79l-5 -44l44 19l30 -72l-48 -14l30 -31z" />
    <glyph glyph-name="FL002Bh" unicode="+" horiz-adv-x="411" 
d="M31 363v-125h112v-113h125v113h112v125h-112v111h-125v-111h-112z" />
    <glyph glyph-name="FL002Ch" unicode="," horiz-adv-x="217" 
d="M186 125h-155v-217h35q23 0 45 7.5t38.5 21t26.5 32t10 39.5v117z" />
    <glyph glyph-name="FL002Dh" unicode="-" horiz-adv-x="366" 
d="M31 363h304v-125h-304v125z" />
    <glyph glyph-name="FL002Eh" unicode="." horiz-adv-x="217" 
d="M31 125h155v-125h-155v125z" />
    <glyph glyph-name="FL002Fh" unicode="/" horiz-adv-x="592" 
d="M21 0l371 600h179l-371 -600h-179z" />
    <glyph glyph-name="FL0030h" unicode="0" 
d="M246 363h121v-125h-121v125zM581 500v-400q0 -19 -11.5 -37t-29 -32t-39 -22.5t-40.5 -8.5h-310q-20 0 -41 8.5t-38.5 22.5t-29 32t-11.5 37v400q0 19 11.5 37t29 32t38.5 22.5t41 8.5h310q19 0 40.5 -8.5t39 -22.5t29 -32t11.5 -37zM186 437v-274q0 -22 11 -30t25 -8
h172q12 1 22 9.5t10 28.5v274q0 20 -10 28.5t-22 9.5h-172q-14 0 -25 -8t-11 -30z" />
    <glyph glyph-name="FL0031h" unicode="1" horiz-adv-x="318" 
d="M31 475h101v-475h155v600h-256v-125z" />
    <glyph glyph-name="FL0032h" unicode="2" horiz-adv-x="582" 
d="M550 0h-399q-20 0 -41 8.5t-38.5 22.5t-29 32t-11.5 37v162q0 19 11.5 37t29 32.5t38.5 23t41 8.5h216q11 2 20 10t9 28v36q0 20 -10 28.5t-22 9.5h-332v125h399q19 0 40.5 -8.5t39 -22.5t29 -32t11.5 -37v-162q0 -19 -11.5 -37t-29 -32t-39 -22.5t-40.5 -8.5h-220
q-25 -7 -25 -39v-36q0 -20 10 -28.5t22 -9.5h332v-125z" />
    <glyph glyph-name="FL0033h" unicode="3" horiz-adv-x="564" 
d="M413 0h-382v125h315q12 1 22 9.5t10 28.5v36q0 19 -9.5 28t-20.5 11h-317v125h315q12 1 22 9.5t10 28.5v36q0 20 -10 28.5t-22 9.5h-315v125h382q19 0 40.5 -8.5t39 -22.5t29 -32t11.5 -37v-119q0 -26 -16.5 -46.5t-43.5 -34.5q55 -28 60 -76v-124q0 -19 -11.5 -37
t-29 -32t-39 -22.5t-40.5 -8.5z" />
    <glyph glyph-name="FL0034h" unicode="4" horiz-adv-x="651" 
d="M31 161v80l187 279q19 28 40.5 44t41.5 24t37.5 10t28.5 2h161v-339h93v-125h-93v-136h-155v136h-320q-16 0 -18.5 7t-2.5 18zM366 475l-135 -214h141v214h-6z" />
    <glyph glyph-name="FL0035h" unicode="5" horiz-adv-x="582" 
d="M32 0h399q19 0 40.5 8.5t39 22.5t29 32t11.5 37v162q0 19 -11.5 37t-29 32.5t-39 23t-40.5 8.5h-216q-11 2 -20 10t-9 28v74h364v125h-519v-262q0 -19 11.5 -37t29 -32t38.5 -22.5t41 -8.5h220q25 -7 25 -39v-36q0 -20 -10 -28.5t-22 -9.5h-332v-125z" />
    <glyph glyph-name="FL0036h" unicode="6" 
d="M581 100q0 -19 -11.5 -37t-29 -32t-39 -22.5t-40.5 -8.5h-310q-20 0 -41 8.5t-38.5 22.5t-29 32t-11.5 37v400q0 19 11.5 37t29 32t38.5 22.5t41 8.5h430v-125h-359q-14 0 -25 -8t-11 -30v-71h275q19 0 40.5 -8.5t39 -22.5t29 -32t11.5 -37v-166zM390 241h-204v-78
q0 -22 11 -30t25 -8h172q12 1 22 9.5t10 28.5v40q0 22 -11 30t-25 8z" />
    <glyph glyph-name="FL0037h" unicode="7" horiz-adv-x="553" 
d="M86 0l247 475h-302v125h491v-95l-267 -505h-169z" />
    <glyph glyph-name="FL0038h" unicode="8" 
d="M31 500q0 19 11.5 37t29 32t38.5 22.5t41 8.5h310q19 0 40.5 -8.5t39 -22.5t29 -32t11.5 -37v-119q0 -26 -16.5 -46.5t-43.5 -34.5q55 -28 60 -76v-124q0 -19 -11.5 -37t-29 -32t-39 -22.5t-40.5 -8.5h-310q-20 0 -41 8.5t-38.5 22.5t-29 32t-11.5 37v124q5 48 60 76
q-27 14 -43.5 34.5t-16.5 46.5v119zM216 238q-11 -2 -20.5 -11t-9.5 -28v-36q0 -20 10 -28.5t22 -9.5h176q12 1 22 9.5t10 28.5v36q0 19 -9.5 28t-20.5 11h-180zM186 401q0 -20 10 -28.5t22 -9.5h176q12 1 22 9.5t10 28.5v36q0 20 -10 28.5t-22 9.5h-176q-12 -1 -22 -9.5
t-10 -28.5v-36z" />
    <glyph glyph-name="FL0039h" unicode="9" 
d="M31 500q0 19 11.5 37t29 32t38.5 22.5t41 8.5h310q19 0 40.5 -8.5t39 -22.5t29 -32t11.5 -37v-400q0 -19 -11.5 -37t-29 -32t-39 -22.5t-40.5 -8.5h-430v125h359q14 0 25 8t11 30v71h-275q-20 0 -41 8.5t-38.5 22.5t-29 32t-11.5 37v166zM222 359h204v78q0 22 -11 30
t-25 8h-172q-12 -1 -22 -9.5t-10 -28.5v-40q0 -22 11 -30t25 -8z" />
    <glyph glyph-name="FL003Ah" unicode=":" horiz-adv-x="217" 
d="M31 125h155v-125h-155v125zM31 363h155v-125h-155v125z" />
    <glyph glyph-name="FL003Bh" unicode=";" horiz-adv-x="217" 
d="M31 238h155v125h-155v-125zM186 125h-155v-217h35q23 0 45 7.5t38.5 21t26.5 32t10 39.5v117z" />
    <glyph glyph-name="FL003Ch" unicode="&#x3c;" horiz-adv-x="412" 
d="M212 0l-186 300l186 300h179l-186 -300l186 -300h-179z" />
    <glyph glyph-name="FL003Dh" unicode="=" horiz-adv-x="382" 
d="M31 274h320v-125h-320v125zM31 452h320v-125h-320v125z" />
    <glyph glyph-name="FL003Eh" unicode="&#x3e;" horiz-adv-x="411" 
d="M21 0l185 300l-185 300h179l185 -300l-185 -300h-179z" />
    <glyph glyph-name="FL003Fh" unicode="?" horiz-adv-x="581" 
d="M77 199v63q0 19 11.5 37t29 32.5t38.5 23t41 8.5h169q11 2 20 10t9 28v36q0 20 -10 28.5t-22 9.5h-332v125h399q19 0 40.5 -8.5t39 -22.5t29 -32t11.5 -37v-162q0 -19 -11.5 -37t-29 -32t-39 -22.5t-40.5 -8.5h-173q-25 -7 -25 -39h-155zM77 125h155v-125h-155v125z" />
    <glyph glyph-name="FL0040h" unicode="@" horiz-adv-x="765" 
d="M579 472v-199q0 -22 -11 -30t-25 -8h-9v175q0 10 -6 20t-16 18t-21.5 12.5t-22.5 4.5h-171q-11 0 -22.5 -4.5t-21 -12.5t-16 -18t-6.5 -20v-220q0 -11 6.5 -20.5t16 -17.5t21 -12.5t22.5 -4.5h317q19 0 40.5 8.5t39 22.5t29 32t11.5 37v300q0 19 -11.5 37t-29 32
t-39 22.5t-40.5 8.5h-463q-20 0 -41 -8.5t-38.5 -22.5t-29 -32t-11.5 -37v-470q0 -19 11.5 -37t29 -32t38.5 -22.5t41 -8.5h583v125h-512q-14 0 -25 8t-11 30v344q0 22 11 30t25 8h321q14 0 25 -8t11 -30zM355 256v88q0 12 6 16.5t14 4.5h17q7 0 12.5 -5t5.5 -16v-109h-35
q-8 0 -14 4.5t-6 16.5z" />
    <glyph glyph-name="FL0041h" unicode="A" horiz-adv-x="700" 
d="M26 25q0 2 0.5 8t0.5 7l187 480q15 38 51.5 59.5t82.5 21.5q20 0 40.5 -6.5t38.5 -17.5t31.5 -26t19.5 -31l201 -520h-165l-168 444l-120 -319h155v-125h-334q-16 0 -18.5 7t-2.5 18z" />
    <glyph glyph-name="FL0FC5h" unicode="B" 
d="M461 0q19 0 40.5 8.5t39 22.5t29 32t11.5 37v124q-5 48 -60 76q27 14 43.5 34.5t16.5 46.5v119q0 19 -11.5 37t-29 32t-39 22.5t-40.5 8.5h-430v-600h430zM186 475h208q12 -1 22 -9.5t10 -28.5v-36q0 -20 -10 -28.5t-22 -9.5h-162v-125h164q11 -2 20.5 -11t9.5 -28v-36
q0 -20 -10 -28.5t-22 -9.5h-208v350z" />
    <glyph glyph-name="FL0053h" unicode="C" 
d="M186 437q0 22 11 30t25 8h172q12 -1 22 -9.5t10 -28.5v-51h155v114q0 19 -11.5 37t-29 32t-39 22.5t-40.5 8.5h-310q-20 0 -41 -8.5t-38.5 -22.5t-29 -32t-11.5 -37v-400q0 -19 11.5 -37t29 -32t38.5 -22.5t41 -8.5h310q19 0 40.5 8.5t39 22.5t29 32t11.5 37v115h-155
v-52q0 -20 -10 -28.5t-22 -9.5h-172q-14 0 -25 8t-11 30v274z" />
    <glyph glyph-name="FL0044h" unicode="D" 
d="M581 500v-400q0 -19 -11.5 -37t-29 -32t-39 -22.5t-40.5 -8.5h-430v600h430q19 0 40.5 -8.5t39 -22.5t29 -32t11.5 -37zM186 475v-350h208q12 1 22 9.5t10 28.5v274q0 20 -10 28.5t-22 9.5h-208z" />
    <glyph glyph-name="FL0045h" unicode="E" horiz-adv-x="564" 
d="M31 0h502v125h-502v-125zM533 475v125h-502v-125h502zM31 238h502v125h-502v-125z" />
    <glyph glyph-name="FL0192h" unicode="F" horiz-adv-x="554" 
d="M186 238v-238h-155v363h492v-125h-337zM523 475h-492v125h492v-125z" />
    <glyph glyph-name="FL0067h" unicode="G" 
d="M581 100q0 -19 -11.5 -37t-29 -32t-39 -22.5t-40.5 -8.5h-310q-20 0 -41 8.5t-38.5 22.5t-29 32t-11.5 37v400q0 19 11.5 37t29 32t38.5 22.5t41 8.5h430v-125h-359q-14 0 -25 -8t-11 -30v-274q0 -22 11 -30t25 -8h172q12 1 22 9.5t10 28.5v40q0 22 -11 30t-25 8h-92v125
h163q19 0 40.5 -8.5t39 -22.5t29 -32t11.5 -37v-166z" />
    <glyph glyph-name="FL0048h" unicode="H" 
d="M31 600h155v-237h240v237h155v-600h-155v238h-240v-238h-155v600z" />
    <glyph glyph-name="FL0049h" unicode="I" horiz-adv-x="543" 
d="M31 125h163v350h-163v125h481v-125h-163v-350h163v-125h-481v125z" />
    <glyph glyph-name="FL004Ah" unicode="J" horiz-adv-x="552" 
d="M265 475h101v-312q0 -22 -11 -30t-25 -8h-299v-125h370q19 0 40.5 8.5t39 22.5t29 32t11.5 37v500h-256v-125z" />
    <glyph glyph-name="FLE003h" unicode="K" horiz-adv-x="602" 
d="M31 600h155v-237h72l149 237h174l-186 -300l186 -300h-174l-150 238h-71v-238h-155v600z" />
    <glyph glyph-name="FL004Ch" unicode="L" horiz-adv-x="552" 
d="M31 600h155v-437q0 -22 11 -30t25 -8h299v-125h-370q-20 0 -41 8.5t-38.5 22.5t-29 32t-11.5 37v500z" />
    <glyph glyph-name="FL004Dh" unicode="M" horiz-adv-x="817" 
d="M331 0v475h-145v-475h-155v600h635q19 0 40.5 -8.5t39 -22.5t29 -32t11.5 -37v-500h-155v437q0 20 -10 28.5t-22 9.5h-113v-475h-155z" />
    <glyph glyph-name="FL007Bh" unicode="N" horiz-adv-x="611" 
d="M494 0h86v600h-155v-338l-239 338h-155v-600h155v338l194 -271q26 -35 56.5 -51t57.5 -16z" />
    <glyph glyph-name="FL004Fh" unicode="O" 
d="M581 500v-400q0 -19 -11.5 -37t-29 -32t-39 -22.5t-40.5 -8.5h-310q-20 0 -41 8.5t-38.5 22.5t-29 32t-11.5 37v400q0 19 11.5 37t29 32t38.5 22.5t41 8.5h310q19 0 40.5 -8.5t39 -22.5t29 -32t11.5 -37zM186 437v-274q0 -22 11 -30t25 -8h172q12 1 22 9.5t10 28.5v274
q0 20 -10 28.5t-22 9.5h-172q-14 0 -25 -8t-11 -30z" />
    <glyph glyph-name="FL005Bh" unicode="P" 
d="M186 475h208q12 -1 22 -9.5t10 -28.5v-36q0 -20 -10 -28.5t-22 -9.5h-162v-125h229q19 0 40.5 8.5t39 22.5t29 32t11.5 37v162q0 19 -11.5 37t-29 32t-39 22.5t-40.5 8.5h-430v-600h155v475z" />
    <glyph glyph-name="FL0051h" unicode="Q" 
d="M581 500v-400q0 -18 -10 -35.5t-26.5 -31t-36.5 -22.5t-39 -11l34 -89h-151l-33 89h-168q-20 0 -41 8.5t-38.5 22.5t-29 32t-11.5 37v400q0 19 11.5 37t29 32t38.5 22.5t41 8.5h310q19 0 40.5 -8.5t39 -22.5t29 -32t11.5 -37zM221 263h150l47 -127q8 11 8 27v274
q0 20 -10 28.5t-22 9.5h-172q-14 0 -25 -8t-11 -30v-274q0 -22 11 -30t25 -8h50z" />
    <glyph glyph-name="FL005Dh" unicode="R" 
d="M186 0h-155v600h430q19 0 40.5 -8.5t39 -22.5t29 -32t11.5 -37v-162q0 -19 -11.5 -37t-29 -32t-39 -22.5t-40.5 -8.5l121 -238h-166l-120 238h-64v125h162q12 1 22 9.5t10 28.5v36q0 20 -10 28.5t-22 9.5h-208v-475z" />
    <glyph glyph-name="FL0073h" unicode="S" horiz-adv-x="582" 
d="M32 0h399q19 0 40.5 8.5t39 22.5t29 32t11.5 37v162q0 19 -11.5 37t-29 32.5t-39 23t-40.5 8.5h-216q-11 2 -20 10t-9 28v36q0 20 10 28.5t22 9.5h332v125h-399q-20 0 -41 -8.5t-38.5 -22.5t-29 -32t-11.5 -37v-162q0 -19 11.5 -37t29 -32t38.5 -22.5t41 -8.5h220
q25 -7 25 -39v-36q0 -20 -10 -28.5t-22 -9.5h-332v-125z" />
    <glyph glyph-name="FL0054h" unicode="T" horiz-adv-x="561" 
d="M203 475h-172v125h499v-125h-172v-475h-155v475z" />
    <glyph glyph-name="FL0055h" unicode="U" 
d="M31 600h155v-437q0 -22 11 -30t25 -8h204v475h155v-600h-430q-20 0 -41 8.5t-38.5 22.5t-29 32t-11.5 37v500z" />
    <glyph glyph-name="FL0056h" unicode="V" horiz-adv-x="703" 
d="M351 159l166 441h165l-201 -520q-6 -17 -19.5 -31.5t-31.5 -25.5t-38 -17.5t-39 -6.5h-3q-20 0 -40 6.5t-37.5 17.5t-31 25.5t-19.5 31.5l-201 520h165z" />
    <glyph glyph-name="FL0057h" unicode="W" horiz-adv-x="817" 
d="M331 600v-475h-109q-14 0 -25 8t-11 30v437h-155v-500q0 -19 11.5 -37t29 -32t38.5 -22.5t41 -8.5h515q19 0 40.5 8.5t39 22.5t29 32t11.5 37v500h-155v-437q0 -20 -10 -28.5t-22 -9.5h-113v475h-155z" />
    <glyph glyph-name="FL0058h" unicode="X" horiz-adv-x="590" 
d="M21 0l185 300l-185 300h175l99 -158l99 158h175l-186 -300l186 -300h-175l-99 157l-99 -157h-175z" />
    <glyph glyph-name="FL0059h" unicode="Y" horiz-adv-x="590" 
d="M21 600l196 -319v-281h155v279l197 321h-175l-99 -159l-99 159h-175z" />
    <glyph glyph-name="FL005Ah" unicode="Z" horiz-adv-x="561" 
d="M31 0v125l305 350h-305v125h499v-125l-305 -350h305v-125h-499z" />
    <glyph glyph-name="FL005Eh" unicode="[" horiz-adv-x="380" 
d="M186 125h163v-125h-318v600h318v-125h-163v-350z" />
    <glyph glyph-name="FL005Ch" unicode="\" horiz-adv-x="592" 
d="M21 600h179l371 -600h-179z" />
    <glyph glyph-name="FL005Fh" unicode="]" horiz-adv-x="380" 
d="M194 125h-163v-125h318v600h-318v-125h163v-350z" />
    <glyph glyph-name="FL00A6h" unicode="^" horiz-adv-x="700" 
d="M26 575q0 -2 0.5 -8t0.5 -7l187 -480q15 -38 51.5 -59.5t82.5 -21.5q20 0 40.5 6.5t38.5 17.5t31.5 25.5t19.5 31.5l201 520h-165l-168 -444l-120 319h155v125h-334q-16 0 -18.5 -7t-2.5 -18z" />
    <glyph glyph-name="FL0062h" unicode="_" horiz-adv-x="502" 
d="M31 125h440v-125h-440v125z" />
    <glyph glyph-name="FL0060h" unicode="`" horiz-adv-x="208" 
d="M-30 777h158l49 -125h-146z" />
    <glyph glyph-name="FL0061h" unicode="a" horiz-adv-x="700" 
d="M26 25q0 2 0.5 8t0.5 7l187 480q15 38 51.5 59.5t82.5 21.5q20 0 40.5 -6.5t38.5 -17.5t31.5 -26t19.5 -31l201 -520h-165l-168 444l-120 -319h144l48 -125h-371q-16 0 -18.5 7t-2.5 18z" />
    <glyph glyph-name="FL0043h" unicode="b" 
d="M461 0q19 0 40.5 8.5t39 22.5t29 32t11.5 37v124q-5 48 -60 76q27 14 43.5 34.5t16.5 46.5v119q0 19 -11.5 37t-29 32t-39 22.5t-40.5 8.5h-430v-600h430zM186 475h208q12 -1 22 -9.5t10 -28.5v-36q0 -20 -10 -28.5t-22 -9.5h-162l63 -125h101q11 -2 20.5 -11t9.5 -28
v-36q0 -20 -10 -28.5t-22 -9.5h-208v350z" />
    <glyph glyph-name="FL00B0h" unicode="c" horiz-adv-x="564" 
d="M186 163q0 -22 11 -30t25 -8h311v-125h-382q-20 0 -41 8.5t-38.5 22.5t-29 32t-11.5 37v400q0 19 11.5 37t29 32t38.5 22.5t41 8.5h382v-125h-311q-14 0 -25 -8t-11 -30v-274z" />
    <glyph glyph-name="FL0064h" unicode="d" 
d="M581 500v-400q0 -19 -11.5 -37t-29 -32t-39 -22.5t-40.5 -8.5h-430v600h430q19 0 40.5 -8.5t39 -22.5t29 -32t11.5 -37zM186 475v-350h208q12 1 22 9.5t10 28.5v274q0 20 -10 28.5t-22 9.5h-208z" />
    <glyph glyph-name="FL0065h" unicode="e" horiz-adv-x="564" 
d="M186 163q0 -22 11 -30t25 -8h311v-125h-382q-20 0 -41 8.5t-38.5 22.5t-29 32t-11.5 37v400q0 19 11.5 37t29 32t38.5 22.5t41 8.5h382v-125h-311q-14 0 -25 -8t-11 -30v-74h347v-125h-347v-75z" />
    <glyph glyph-name="FL0066h" unicode="f" horiz-adv-x="554" 
d="M186 238v-238h-155v500q0 19 11.5 37t29 32t38.5 22.5t41 8.5h372v-125h-301q-14 0 -25 -8t-11 -30v-74h337v-125h-337z" />
    <glyph glyph-name="FL0047h" unicode="g" 
d="M581 100q0 -19 -11.5 -37t-29 -32t-39 -22.5t-40.5 -8.5h-310q-20 0 -41 8.5t-38.5 22.5t-29 32t-11.5 37v400q0 19 11.5 37t29 32t38.5 22.5t41 8.5h430v-125h-359q-14 0 -25 -8t-11 -30v-274q0 -22 11 -30t25 -8h172q12 1 22 9.5t10 28.5v40q0 22 -11 30t-25 8h-60
l-62 125h193q19 0 40.5 -8.5t39 -22.5t29 -32t11.5 -37v-166z" />
    <glyph glyph-name="FL0068h" unicode="h" 
d="M31 600h155v-237h240v237h155v-600h-155v238h-240v-238h-155v600z" />
    <glyph glyph-name="FL0069h" unicode="i" horiz-adv-x="217" 
d="M31 600h155v-600h-155v600z" />
    <glyph glyph-name="FL006Ah" unicode="j" horiz-adv-x="552" 
d="M521 600h-155v-437q0 -22 -11 -30t-25 -8h-299v-125h370q19 0 40.5 8.5t39 22.5t29 32t11.5 37v500z" />
    <glyph glyph-name="FL00AAh" unicode="k" 
d="M31 0v600h155v-237h109l121 237h164l-121 -237q21 0 42.5 -8.5t39.5 -22.5t29 -32t11 -37v-263h-155v200q0 20 -9.5 28.5t-23.5 9.5h-207v-238h-155z" />
    <glyph glyph-name="FL006Ch" unicode="l" horiz-adv-x="552" 
d="M31 600h155v-437q0 -22 11 -30t25 -8h299v-125h-370q-20 0 -41 8.5t-38.5 22.5t-29 32t-11.5 37v500z" />
    <glyph glyph-name="FL006Dh" unicode="m" horiz-adv-x="807" 
d="M31 600h183l189 -331l190 331h183v-600h-155v341l-197 -341h-42l-196 341v-341h-155v600z" />
    <glyph glyph-name="FL006Eh" unicode="n" 
d="M186 475v-475h-155v600h430q19 0 40.5 -8.5t39 -22.5t29 -32t11.5 -37v-500h-155v437q0 20 -10 28.5t-22 9.5h-208z" />
    <glyph glyph-name="FL006Fh" unicode="o" 
d="M581 500v-400q0 -19 -11.5 -37t-29 -32t-39 -22.5t-40.5 -8.5h-310q-20 0 -41 8.5t-38.5 22.5t-29 32t-11.5 37v400q0 19 11.5 37t29 32t38.5 22.5t41 8.5h310q19 0 40.5 -8.5t39 -22.5t29 -32t11.5 -37zM186 437v-274q0 -22 11 -30t25 -8h172q12 1 22 9.5t10 28.5v274
q0 20 -10 28.5t-22 9.5h-172q-14 0 -25 -8t-11 -30z" />
    <glyph glyph-name="FL0050h" unicode="p" 
d="M186 475h208q12 -1 22 -9.5t10 -28.5v-36q0 -20 -10 -28.5t-22 -9.5h-162l63 -125h166q19 0 40.5 8.5t39 22.5t29 32t11.5 37v162q0 19 -11.5 37t-29 32t-39 22.5t-40.5 8.5h-430v-600h155v475z" />
    <glyph glyph-name="FL0071h" unicode="q" 
d="M223 263l131 -352h149l-34 89q19 2 39 11t36.5 22.5t26.5 31t10 35.5v400q0 19 -11.5 37t-29 32t-39 22.5t-40.5 8.5h-310q-20 0 -41 -8.5t-38.5 -22.5t-29 -32t-11.5 -37v-400q0 -19 11.5 -37t29 -32t38.5 -22.5t41 -8.5h71v125q-14 0 -25 8t-11 30v274q0 22 11 30t25 8
h172q12 -1 22 -9.5t10 -28.5v-274q0 -16 -8 -27l-47 127h-148z" />
    <glyph glyph-name="FL0052h" unicode="r" 
d="M186 475h208q12 -1 22 -9.5t10 -28.5v-36q0 -20 -10 -28.5t-22 -9.5h-162l184 -363h166l-121 238q19 0 40.5 8.5t39 22.5t29 32t11.5 37v162q0 19 -11.5 37t-29 32t-39 22.5t-40.5 8.5h-430v-600h155v475z" />
    <glyph glyph-name="FL0074h" unicode="s" horiz-adv-x="560" 
d="M32 0h377q19 0 40.5 8.5t39 22.5t29 32t11.5 37v111q0 13 -18 31t-56 43t-98.5 58.5t-145.5 78.5q-10 5 -16.5 10.5t-6.5 15.5q0 19 9 22.5t21 4.5h310v125h-377q-20 0 -41 -8.5t-38.5 -22.5t-29 -32t-11.5 -37v-110q0 -14 15.5 -30.5t52.5 -41t98 -58.5t152 -82
q10 -5 16.5 -11t6.5 -15q0 -19 -9 -22.5t-21 -4.5h-310v-125z" />
    <glyph glyph-name="t" unicode="t" horiz-adv-x="561" 
d="M203 475h-172v125h499v-125h-172v-475h-155v475z" />
    <glyph glyph-name="FL0075h" unicode="u" 
d="M31 600h155v-437q0 -22 11 -30t25 -8h172q12 1 22 9.5t10 28.5v437h155v-500q0 -19 -11.5 -37t-29 -32t-39 -22.5t-40.5 -8.5h-310q-20 0 -41 8.5t-38.5 22.5t-29 32t-11.5 37v500z" />
    <glyph glyph-name="FL0076h" unicode="v" horiz-adv-x="703" 
d="M351 159l166 441h165l-201 -520q-6 -17 -19.5 -31.5t-31.5 -25.5t-38 -17.5t-39 -6.5h-3q-20 0 -40 6.5t-37.5 17.5t-31 25.5t-19.5 31.5l-201 520h165z" />
    <glyph glyph-name="FL0077h" unicode="w" horiz-adv-x="980" 
d="M298 600l112 -288q-10 -42 -25 -83t-34 -70l-165 441h-165l201 -520q6 -17 19.5 -31.5t31 -25.5t37.5 -17.5t40 -6.5h3q19 0 39 6.5t38 17.5t31.5 25.5t19.5 31.5l9 23l9 -23q6 -17 19.5 -31.5t31 -25.5t37.5 -17.5t40 -6.5h3q19 0 39 6.5t38 17.5t31.5 25.5t19.5 31.5
l201 520h-165l-166 -441l-165 441h-165z" />
    <glyph glyph-name="FL0078h" unicode="x" horiz-adv-x="590" 
d="M21 0l185 300l-185 300h175l99 -158l99 158h175l-186 -300l186 -300h-175l-99 157l-99 -157h-175z" />
    <glyph glyph-name="FL0079h" unicode="y" horiz-adv-x="581" 
d="M31 600h155v-199q0 -22 11 -30t25 -8h173v237h155v-500q0 -19 -11.5 -37t-29 -32t-39 -22.5t-40.5 -8.5h-399v125h328q14 0 25 8t11 30v75h-244q-20 0 -41 8.5t-38.5 22.5t-29 32t-11.5 37v262z" />
    <glyph glyph-name="FL007Ah" unicode="z" horiz-adv-x="560" 
d="M31 0v125l304 350h-304v125h498v-125l-304 -350h304v-125h-498z" />
    <glyph glyph-name="FL0042h" unicode="{" 
d="M581 215q0 26 -19 48.5t-46 36.5q27 14 46 36.5t19 48.5v119q-2 18 -13.5 35.5t-29 31t-38 21.5t-39.5 8h-430v-600h430q19 0 39.5 8t37.5 21.5t29 30.5t14 36v119zM186 125v350h208q12 -1 22 -9.5t10 -28.5v-40q-2 -18 -11.5 -25.5t-20.5 -8.5h-162l120 -238h-166z" />
    <glyph glyph-name="FL007Ch" unicode="|" horiz-adv-x="217" 
d="M186 -92v783h-155v-783h155z" />
    <glyph glyph-name="FL00AEh" unicode="}" 
d="M581 100q0 -19 -11.5 -37t-29 -32t-39 -22.5t-40.5 -8.5h-310q-20 0 -41 8.5t-38.5 22.5t-29 32t-11.5 37v400q0 19 11.5 37t29 32t38.5 22.5t41 8.5h430v-125h-359q-14 0 -25 -8t-11 -30v-274q0 -22 11 -30t25 -8h172q12 1 22 9.5t10 28.5v184h155v-247z" />
    <glyph glyph-name="FL007Eh" unicode="~" horiz-adv-x="515" 
d="M246 238h176l72 125h-148l-39 -61l-38 61h-176l-72 -125h148l39 61z" />
    <glyph glyph-name="FL007Fh" horiz-adv-x="224" 
 />
    <glyph glyph-name="FL20ACh" unicode="&#x20ac;" horiz-adv-x="642" 
d="M31 443v-123h86v-39h-86v-123h86v-58q0 -19 11.5 -37t29 -32t38.5 -22.5t41 -8.5h374v125h-303q-14 0 -24 7t-12 26h157v123h-157v39h157v123h-157q2 18 12 25t24 7h303v125h-374q-20 0 -41 -8.5t-38.5 -22.5t-29 -32t-11.5 -37v-57h-86z" />
    <glyph glyph-name="FL201Ah" unicode="&#x201a;" horiz-adv-x="217" 
d="M186 125h-155v-217h35q23 0 45 7.5t38.5 21t26.5 32t10 39.5v117z" />
    <glyph glyph-name="FL0193h" unicode="&#x192;" horiz-adv-x="554" 
d="M186 238v-238h-155v363h492v-125h-337zM523 475h-492v25q0 19 11.5 37t29 32t38.5 22.5t41 8.5h372v-125z" />
    <glyph glyph-name="FL201Eh" unicode="&#x201e;" horiz-adv-x="417" 
d="M386 125h-155v-217h35q23 0 45 7.5t38.5 21t26.5 32t10 39.5v117zM186 125h-155v-217h35q23 0 45 7.5t38.5 21t26.5 32t10 39.5v117z" />
    <glyph glyph-name="FL2026h" unicode="&#x2026;" horiz-adv-x="618" 
d="M231 125h155v-125h-155v125zM432 125h155v-125h-155v125zM31 125h155v-125h-155v125z" />
    <glyph glyph-name="FL2020h" unicode="&#x2020;" horiz-adv-x="382" 
d="M31 452v-125h82v-327h155v327h83v125h-83v148h-155v-148h-82z" />
    <glyph glyph-name="FL2021h" unicode="&#x2021;" horiz-adv-x="382" 
d="M31 452v-125h82v-53h-82v-125h82v-149h155v149h83v125h-83v53h83v125h-83v148h-155v-148h-82z" />
    <glyph glyph-name="FL02C6h" unicode="&#x2c6;" horiz-adv-x="436" 
d="M333 777l72 -125h-148l-39 61l-39 -61h-148l72 125h230z" />
    <glyph glyph-name="FL2030h" unicode="&#x2030;" horiz-adv-x="1218" 
d="M208 0l308 600h164l-308 -600h-164zM857 275v-220q0 -11 -6 -20.5t-16 -17.5t-21.5 -12.5t-22.5 -4.5h-171q-11 0 -22.5 4.5t-21 12.5t-16 17.5t-6.5 20.5v220q0 10 6.5 20t16 18t21 12.5t22.5 4.5h171q11 0 22.5 -4.5t21.5 -12.5t16 -18t6 -20zM678 209v-88
q0 -12 6 -16.5t14 -4.5h17q7 0 12.5 5t5.5 16v88q0 11 -5.5 16t-12.5 5h-17q-8 0 -14 -4.5t-6 -16.5zM334 545v-220q0 -11 -6 -20.5t-16 -17.5t-21.5 -12.5t-22.5 -4.5h-171q-11 0 -22.5 4.5t-21 12.5t-16 17.5t-6.5 20.5v220q0 10 6.5 20t16 18t21 12.5t22.5 4.5h171
q11 0 22.5 -4.5t21.5 -12.5t16 -18t6 -20zM155 479v-88q0 -12 6 -16.5t14 -4.5h17q7 0 12.5 5t5.5 16v88q0 11 -5.5 16t-12.5 5h-17q-8 0 -14 -4.5t-6 -16.5zM1187 275v-220q0 -11 -6 -20.5t-16 -17.5t-21.5 -12.5t-22.5 -4.5h-171q-11 0 -22.5 4.5t-21 12.5t-16 17.5
t-6.5 20.5v220q0 10 6.5 20t16 18t21 12.5t22.5 4.5h171q11 0 22.5 -4.5t21.5 -12.5t16 -18t6 -20zM1008 209v-88q0 -12 6 -16.5t14 -4.5h17q7 0 12.5 5t5.5 16v88q0 11 -5.5 16t-12.5 5h-17q-8 0 -14 -4.5t-6 -16.5z" />
    <glyph glyph-name="FL0160h" unicode="&#x160;" horiz-adv-x="560" 
d="M395 652l72 125h-148l-39 -61l-39 61h-148l72 -125h230zM32 0h377q19 0 40.5 8.5t39 22.5t29 32t11.5 37v110q0 12 -14.5 29.5t-50.5 43t-97.5 59t-155.5 77.5q-10 5 -16 10.5t-7 16.5q0 20 9 24t21 5h310v125h-377q-20 0 -41 -8.5t-38.5 -22.5t-29 -32t-11.5 -37v-110
q0 -15 14.5 -33.5t51 -43t98 -57t154.5 -75.5q10 -5 16.5 -11.5t6.5 -15.5q0 -20 -9 -24t-21 -5h-310v-125z" />
    <glyph glyph-name="FL2039h" unicode="&#x2039;" horiz-adv-x="187" 
d="M31 416l125 72v-148l-61 -39l61 -39v-148l-125 72v230z" />
    <glyph glyph-name="FL0152h" unicode="&#x152;" horiz-adv-x="959" 
d="M928 475v125h-777q-20 0 -41 -8.5t-38.5 -22.5t-29 -32t-11.5 -37v-400q0 -19 11.5 -37t29 -32t38.5 -22.5t41 -8.5h777v125h-706q-14 0 -25 8t-11 30v274q0 22 11 30t25 8h706zM426 238h502v125h-502v-125z" />
    <glyph glyph-name="FL017Dh" unicode="&#x17d;" horiz-adv-x="560" 
d="M165 652l-72 125h148l39 -61l39 61h148l-72 -125h-230zM31 0v125l305 350h-305v125h498v-125l-305 -350h305v-125h-498z" />
    <glyph glyph-name="FL2018h" unicode="&#x2018;" horiz-adv-x="217" 
d="M31 383h155v217h-35q-23 0 -45 -7.5t-38.5 -21t-26.5 -32t-10 -39.5v-117z" />
    <glyph glyph-name="FL2019h" unicode="&#x2019;" horiz-adv-x="217" 
d="M186 600h-155v-217h35q23 0 45 7.5t38.5 21t26.5 32t10 39.5v117z" />
    <glyph glyph-name="FL201Ch" unicode="&#x201c;" horiz-adv-x="417" 
d="M31 383h155v217h-35q-23 0 -45 -7.5t-38.5 -21t-26.5 -32t-10 -39.5v-117zM231 383h155v217h-35q-23 0 -45 -7.5t-38.5 -21t-26.5 -32t-10 -39.5v-117z" />
    <glyph glyph-name="FL201Dh" unicode="&#x201d;" horiz-adv-x="417" 
d="M386 600h-155v-217h35q23 0 45 7.5t38.5 21t26.5 32t10 39.5v117zM186 600h-155v-217h35q23 0 45 7.5t38.5 21t26.5 32t10 39.5v117z" />
    <glyph glyph-name="FL2022h" unicode="&#x2022;" 
d="M581 500v-400q0 -19 -11.5 -37t-29 -32t-39 -22.5t-40.5 -8.5h-310q-20 0 -41 8.5t-38.5 22.5t-29 32t-11.5 37v400q0 19 11.5 37t29 32t38.5 22.5t41 8.5h310q19 0 40.5 -8.5t39 -22.5t29 -32t11.5 -37z" />
    <glyph glyph-name="FL2013h" unicode="&#x2013;" horiz-adv-x="366" 
d="M31 363h304v-125h-304v125z" />
    <glyph glyph-name="FL2014h" unicode="&#x2014;" horiz-adv-x="494" 
d="M31 363h432v-125h-432v125z" />
    <glyph glyph-name="FL02DCh" unicode="&#x2dc;" horiz-adv-x="463" 
d="M218 713l-39 -61h-148l72 125h176l38 -61l39 61h148l-72 -125h-176z" />
    <glyph glyph-name="FL0D23h" unicode="&#x2122;" horiz-adv-x="311" 
d="M72 628v-110h19v110h45v19h-110v-19h46zM157 643v-125h15v84l6 6l31 -83q1 -7 6 -7h6q2 0 4.5 1.5t7 10.5t11.5 27.5t18 53.5l4 -9v-84h14v129h-5q-14 0 -23 -9.5t-19 -38.5l-15 -44l-18 56q-3 13 -14.5 25t-16.5 12q-7 0 -12 -5z" />
    <glyph glyph-name="FL2122h" unicode="&#x161;" horiz-adv-x="582" 
d="M176 652l-72 125h148l39 -61l39 61h148l-72 -125h-230zM32 125h332q12 1 22 9.5t10 28.5v36q0 32 -25 39h-220q-20 0 -41 8.5t-38.5 22.5t-29 32t-11.5 37v162q0 19 11.5 37t29 32t38.5 22.5t41 8.5h399v-125h-332q-12 -1 -22 -9.5t-10 -28.5v-36q0 -20 9 -28t20 -10h216
q19 0 40.5 -8.5t39 -23t29 -32.5t11.5 -37v-162q0 -19 -11.5 -37t-29 -32t-39 -22.5t-40.5 -8.5h-399v125z" />
    <glyph glyph-name="FL203Ah" unicode="&#x203a;" horiz-adv-x="187" 
d="M31 488l125 -72v-230l-125 -72v148l61 39l-61 39v148z" />
    <glyph glyph-name="FL0153h" unicode="&#x153;" horiz-adv-x="958" 
d="M580 238h347v125h-347v112h347v125h-776q-20 0 -41 -8.5t-38.5 -22.5t-29 -32t-11.5 -37v-400q0 -19 11.5 -37t29 -32t38.5 -22.5t41 -8.5h776v125h-347v113zM186 163v274q0 22 11 30t25 8h203v-350h-203q-14 0 -25 8t-11 30z" />
    <glyph glyph-name="FL017Eh" unicode="&#x17e;" horiz-adv-x="560" 
d="M165 652l-72 125h148l39 -61l39 61h148l-72 -125h-230zM31 0v125l305 350h-305v125h498v-125l-304 -350h304v-125h-498z" />
    <glyph glyph-name="FL0178h" unicode="&#x178;" horiz-adv-x="592" 
d="M111 777h155v-125h-155v125zM326 777h155v-125h-155v125zM200 600l96 -156l96 156h179l-198 -321v-279h-155v281l-197 319h179z" />
    <glyph glyph-name="FL00A1h" unicode="&#xa1;" horiz-adv-x="217" 
d="M31 401v-401h155v401h-155zM31 475h155v125h-155v-125z" />
    <glyph glyph-name="FL00A2h" unicode="&#xa2;" horiz-adv-x="564" 
d="M277 0v70h-126q-20 0 -41 8.5t-38.5 22.5t-29 32t-11.5 37v270q0 19 11.5 37t29 32t38.5 22.5t41 8.5h126v60h125v-60h131v-125h-131v-220h131v-125h-131v-70h-125zM186 233q0 -22 11 -30t25 -8h55v220h-55q-14 0 -25 -8t-11 -30v-144z" />
    <glyph glyph-name="FL00A3h" unicode="&#xa3;" horiz-adv-x="600" 
d="M31 363h88v137q0 19 11.5 37t29 32t38.5 22.5t41 8.5h170v-125h-103q-12 -1 -22 -9.5t-10 -28.5v-74h210v-125h-210v-113h295v-125h-538v125h88v113h-88v125z" />
    <glyph glyph-name="FL00A4h" unicode="&#xa4;" horiz-adv-x="592" 
d="M144 199v201l-123 200h179l83 -136h25l84 136h179l-124 -200v-200l124 -200h-179l-83 134h-26l-83 -134h-179zM268 343v-88q0 -12 6 -16.5t14 -4.5h17q7 0 12.5 5t5.5 16v88q0 11 -5.5 16t-12.5 5h-17q-8 0 -14 -4.5t-6 -16.5z" />
    <glyph glyph-name="FL00A7h" unicode="&#xa5;" horiz-adv-x="592" 
d="M200 600h-179l147 -239h-96v-125h146v-52h-146v-125h146v-59h155v59h147v125h-147v52h147v125h-97l148 239h-179l-96 -156z" />
    <glyph glyph-name="FL00AFh" unicode="&#xa6;" horiz-adv-x="217" 
d="M186 -92h-155v366h155v-366zM186 326h-155v365h155v-365z" />
    <glyph glyph-name="FL00A9h" unicode="&#xa7;" horiz-adv-x="592" 
d="M144 199v210q0 10 6.5 20t16 18t21 12.5t22.5 4.5h98l84 136h179l-124 -200v-211q0 -11 -6 -20.5t-16 -17.5t-21.5 -12.5t-22.5 -4.5h-98l-83 -134h-179zM268 343v-88q0 -12 6 -16.5t14 -4.5h17q7 0 12.5 5t5.5 16v88q0 11 -5.5 16t-12.5 5h-17q-8 0 -14 -4.5t-6 -16.5z
" />
    <glyph glyph-name="FL00A8h" unicode="&#xa8;" horiz-adv-x="432" 
d="M31 777h155v-125h-155v125zM246 777h155v-125h-155v125z" />
    <glyph glyph-name="copyright" unicode="&#xa9;" horiz-adv-x="232" 
d="M116 647q-5 0 -44 -11q-19 -10 -34 -34q-5 -11 -8.5 -21t-3.5 -24q0 -23 12 -44q8 -11 15.5 -18t17.5 -15q24 -12 45 -12q1 0 12.5 2t31.5 10q12 8 20.5 15t13.5 18q12 24 12 44q0 25 -12 45q-11 23 -34 34q-20 11 -44 11zM116 634q19 0 36 -11q20 -10 29.5 -28t9.5 -38
q0 -17 -10 -36q-12 -20 -28 -27q-17 -11 -37 -11q-2 0 -10.5 2.5t-26.5 8.5q-9 6 -15.5 13t-11.5 14q-10 16 -10 36q0 22 10 38q10 19 27.5 29t36.5 10zM145 544q-5 -23 -30 -23q-29 0 -29 36q0 38 31 38q18 0 26 -18l15 3q-11 29 -41 29q-22 0 -34.5 -13t-12.5 -39
q0 -24 12.5 -37.5t33.5 -13.5q33 0 44 33z" />
    <glyph glyph-name="FL00ABh" unicode="&#xaa;" 
d="M31 0h155v437q0 22 11 30t25 8h172q12 -1 22 -9.5t10 -28.5v-74h-194l63 -125h131v-238h155v500q0 19 -11.5 37t-29 32t-39 22.5t-40.5 8.5h-310q-20 0 -41 -8.5t-38.5 -22.5t-29 -32t-11.5 -37v-500z" />
    <glyph glyph-name="FL00B1h" unicode="&#xab;" horiz-adv-x="351" 
d="M195 416l125 72v-148l-61 -39l61 -39v-148l-125 72v230zM31 416l125 72v-148l-61 -39l61 -39v-148l-125 72v230z" />
    <glyph glyph-name="FL00ACh" unicode="&#xac;" horiz-adv-x="411" 
d="M31 363v-125h224v-113h125v238h-349z" />
    <glyph glyph-name="FL00B3h" unicode="&#xad;" horiz-adv-x="283" 
d="M31 363h221v-125h-221v125z" />
    <glyph glyph-name="registered" unicode="&#xae;" horiz-adv-x="242" 
d="M121 647q-5 0 -44 -11q-19 -10 -34 -34q-5 -11 -8.5 -21t-3.5 -24q0 -23 12 -44q15 -21 33 -33q21 -12 45 -12q1 0 13.5 1.5t31.5 10.5q24 13 33 33q12 24 12 44q0 25 -12 45q-9 22 -34 34q-20 11 -44 11zM121 633q20 0 36 -10q20 -10 29.5 -28t9.5 -38l-2.5 -9l-7.5 -27
q-10 -15 -28 -27q-16 -10 -37 -10q-2 0 -10 1.5t-22 6.5l-5 2q-20 12 -27 27l-7.5 27l-2.5 9q0 22 10 38q10 19 27.5 28.5t36.5 9.5zM83 509h15v40h9q7 0 12 -3q7 -4 17 -23l8 -14h20l-13 19q-8 10 -11 15.5t-11 8.5q13 1 20.5 8.5t7.5 17.5q0 9 -6 15q-4 7 -11 9
q-6 3 -25 3h-32v-96zM98 562v30h17q15 0 16 -1q9 -5 9 -14q0 -8 -5 -11.5t-19 -3.5h-18z" />
    <glyph glyph-name="FL00BBh" unicode="&#xaf;" horiz-adv-x="502" 
d="M31 600h440v-125h-440v125z" />
    <glyph glyph-name="FL00B4h" unicode="&#xb0;" horiz-adv-x="217" 
d="M86 695h45v39h-45v-39zM31 777h155v-125h-155v125z" />
    <glyph glyph-name="FL00B2h" unicode="&#xb1;" horiz-adv-x="411" 
d="M31 416v-125h112v-113h125v113h112v125h-112v111h-125v-111h-112zM31 125v-125h349v125h-349z" />
    <glyph glyph-name="FL0F2Ch" unicode="&#xb2;" horiz-adv-x="348" 
d="M317 317h-211q-12 0 -25 5.5t-24 15t-18.5 21.5t-7.5 25v80q0 13 7.5 25t18.5 21.5t24 15.5t25 6h87v15h-161v100h210q12 0 25.5 -5.5t24.5 -15t18 -21.5t7 -25v-80q0 -13 -7 -25t-18 -21.5t-24.5 -15t-25.5 -5.5h-86v-16h161v-100z" />
    <glyph glyph-name="FL00C9h" unicode="&#xb3;" horiz-adv-x="339" 
d="M31 317v100h153v15h-153v99h153v16h-153v100h202q12 0 25 -5.5t24 -15t18.5 -21.5t7.5 -25v-58q0 -23 -17 -40q14 -17 17 -36v-62q0 -13 -7.5 -25t-18.5 -21.5t-24 -15t-25 -5.5h-202z" />
    <glyph glyph-name="FL00B6h" unicode="&#xb4;" horiz-adv-x="208" 
d="M177 652h-146l49 125h158z" />
    <glyph glyph-name="FL00B5h" unicode="&#xb5;" 
d="M186 -92h-155v692h155v-475h208q12 1 22 9.5t10 28.5v437h155v-500q0 -19 -11.5 -37t-29 -32t-39 -22.5t-40.5 -8.5h-275v-92z" />
    <glyph glyph-name="FL00B9h" unicode="&#xb6;" 
d="M380 -92h-155v330h-74q-20 0 -41 8.5t-38.5 22.5t-29 32t-11.5 37v162q0 19 11.5 37t29 32t38.5 22.5t41 8.5h430v-692h-155v567h-46v-567z" />
    <glyph glyph-name="FL00B7h" unicode="&#xb7;" horiz-adv-x="217" 
d="M31 363h155v-125h-155v125z" />
    <glyph glyph-name="FL00B8h" unicode="&#xb8;" horiz-adv-x="185" 
d="M-29 -48h60v48h123v-169h-183v121z" />
    <glyph glyph-name="FL00BDh" unicode="&#xb9;" horiz-adv-x="231" 
d="M31 547v100h169v-330h-124v230h-45z" />
    <glyph glyph-name="FL00BAh" unicode="&#xba;" horiz-adv-x="365" 
d="M334 592v-220q0 -11 -6 -20.5t-16 -17.5t-21.5 -12.5t-22.5 -4.5h-171q-11 0 -22.5 4.5t-21 12.5t-16 17.5t-6.5 20.5v220q0 10 6.5 20t16 18t21 12.5t22.5 4.5h171q11 0 22.5 -4.5t21.5 -12.5t16 -18t6 -20zM155 526v-88q0 -12 6 -16.5t14 -4.5h17q7 0 12.5 5t5.5 16v88
q0 11 -5.5 16t-12.5 5h-17q-8 0 -14 -4.5t-6 -16.5z" />
    <glyph glyph-name="FL00BCh" unicode="&#xbb;" horiz-adv-x="351" 
d="M195 488l125 -72v-230l-125 -72v148l61 39l-61 39v148zM31 488l125 -72v-230l-125 -72v148l61 39l-61 39v148z" />
    <glyph glyph-name="FL0684h" unicode="&#xbc;" horiz-adv-x="758" 
d="M106 0l308 600h164l-308 -600h-164zM31 500v100h169v-330h-124v230h-45zM571 164v29l-19 -29h19zM400 143l95 140q11 16 24 25.5t25 14t22.5 6t16.5 1.5h113v-166h31v-99h-31v-65h-125v65h-142q-22 0 -25.5 8t-3.5 22v48z" />
    <glyph glyph-name="FL00BEh" unicode="&#xbd;" horiz-adv-x="797" 
d="M106 0l308 600h164l-308 -600h-164zM31 500v100h169v-330h-124v230h-45zM766 0h-211q-12 0 -25 5.5t-24 15t-18.5 21.5t-7.5 25v80q0 13 7.5 25t18.5 21.5t24 15.5t25 6h87v15h-161v100h210q12 0 25.5 -5.5t24.5 -15t18 -21.5t7 -25v-80q0 -13 -7 -25t-18 -21.5
t-24.5 -15t-25.5 -5.5h-86v-16h161v-100z" />
    <glyph glyph-name="FL00CDh" unicode="&#xbe;" horiz-adv-x="832" 
d="M645 164v29l-19 -29h19zM474 143l95 140q11 16 24 25.5t25 14t22.5 6t16.5 1.5h113v-166h31v-99h-31v-65h-125v65h-142q-22 0 -25.5 8t-3.5 22v48zM180 0l308 600h164l-308 -600h-164zM31 270v100h153v15h-153v99h153v16h-153v100h202q12 0 25 -5.5t24 -15t18.5 -21.5
t7.5 -25v-58q0 -23 -17 -40q14 -17 17 -36v-62q0 -13 -7.5 -25t-18.5 -21.5t-24 -15t-25 -5.5h-202z" />
    <glyph glyph-name="FL00BFh" unicode="&#xbf;" horiz-adv-x="581" 
d="M504 401v-63q0 -19 -11.5 -37t-29 -32.5t-39 -23t-40.5 -8.5h-169q-11 -2 -20 -10t-9 -28v-36q0 -20 10 -28.5t22 -9.5h332v-125h-399q-20 0 -41 8.5t-38.5 22.5t-29 32t-11.5 37v162q0 19 11.5 37t29 32t38.5 22.5t41 8.5h173q25 7 25 39h155zM504 475h-155v125h155
v-125z" />
    <glyph glyph-name="FL00C0h" unicode="&#xc0;" horiz-adv-x="700" 
d="M208 777h158l49 -125h-146zM26 25q0 2 0.5 8t0.5 7l187 480q15 38 51.5 59.5t82.5 21.5q20 0 40.5 -6.5t38.5 -17.5t31.5 -26t19.5 -31l201 -520h-165l-168 444l-120 -319h155v-125h-334q-16 0 -18.5 7t-2.5 18z" />
    <glyph glyph-name="FL00C1h" unicode="&#xc1;" horiz-adv-x="700" 
d="M403 652h-146l49 125h158zM26 25q0 2 0.5 8t0.5 7l187 480q15 38 51.5 59.5t82.5 21.5q20 0 40.5 -6.5t38.5 -17.5t31.5 -26t19.5 -31l201 -520h-165l-168 444l-120 -319h155v-125h-334q-16 0 -18.5 7t-2.5 18z" />
    <glyph glyph-name="FL00C2h" unicode="&#xc2;" horiz-adv-x="700" 
d="M465 777l72 -125h-148l-39 61l-39 -61h-148l72 125h230zM26 25q0 2 0.5 8t0.5 7l187 480q15 38 51.5 59.5t82.5 21.5q20 0 40.5 -6.5t38.5 -17.5t31.5 -26t19.5 -31l201 -520h-165l-168 444l-120 -319h155v-125h-334q-16 0 -18.5 7t-2.5 18z" />
    <glyph glyph-name="FL00C3h" unicode="&#xc3;" horiz-adv-x="700" 
d="M300 713l-39 -61h-148l72 125h176l38 -61l39 61h148l-72 -125h-176zM26 25q0 2 0.5 8t0.5 7l187 480q15 38 51.5 59.5t82.5 21.5q20 0 40.5 -6.5t38.5 -17.5t31.5 -26t19.5 -31l201 -520h-165l-168 444l-120 -319h155v-125h-334q-16 0 -18.5 7t-2.5 18z" />
    <glyph glyph-name="FL00C4h" unicode="&#xc4;" horiz-adv-x="700" 
d="M165 777h155v-125h-155v125zM380 777h155v-125h-155v125zM26 25q0 2 0.5 8t0.5 7l187 480q15 38 51.5 59.5t82.5 21.5q20 0 40.5 -6.5t38.5 -17.5t31.5 -26t19.5 -31l201 -520h-165l-168 444l-120 -319h155v-125h-334q-16 0 -18.5 7t-2.5 18z" />
    <glyph glyph-name="FL00C5h" unicode="&#xc5;" horiz-adv-x="700" 
d="M327 695h45v39h-45v-39zM272 777h155v-125h-155v125zM26 25q0 2 0.5 8t0.5 7l187 480q15 38 51.5 59.5t82.5 21.5q20 0 40.5 -6.5t38.5 -17.5t31.5 -26t19.5 -31l201 -520h-165l-168 444l-120 -319h155v-125h-334q-16 0 -18.5 7t-2.5 18z" />
    <glyph glyph-name="FL00C6h" unicode="&#xc6;" horiz-adv-x="1092" 
d="M26 25q0 -11 2.5 -18t18.5 -7h334v125h-155l120 319l168 -444h547v125h-431l-43 113h474v125h-502v-53l-81 210q-6 16 -19.5 31t-31.5 26t-38.5 17.5t-40.5 6.5q-46 0 -82.5 -21.5t-51.5 -59.5l-187 -480q0 -1 -0.5 -7t-0.5 -8zM1061 475v125h-502v-125h502z" />
    <glyph glyph-name="FL00C7h" unicode="&#xc7;" 
d="M206 -48h60v48h-115q-20 0 -41 8.5t-38.5 22.5t-29 32t-11.5 37v400q0 19 11.5 37t29 32t38.5 22.5t41 8.5h310q19 0 40.5 -8.5t39 -22.5t29 -32t11.5 -37v-114h-155v51q0 20 -10 28.5t-22 9.5h-172q-14 0 -25 -8t-11 -30v-274q0 -22 11 -30t25 -8h172q12 1 22 9.5
t10 28.5v52h155v-115q0 -19 -11.5 -37t-29 -32t-39 -22.5t-40.5 -8.5h-72v-169h-183v121z" />
    <glyph glyph-name="FL00C8h" unicode="&#xc8;" horiz-adv-x="564" 
d="M533 0h-502v125h502v-125zM31 475v125h502v-125h-502zM533 238h-502v125h502v-125zM155 777h158l49 -125h-146z" />
    <glyph glyph-name="FL0C01h" unicode="&#xc9;" horiz-adv-x="564" 
d="M348 652h-146l49 125h158zM31 363h502v-125h-502v125zM31 475v125h502v-125h-502zM31 125h502v-125h-502v125z" />
    <glyph glyph-name="FL00CAh" unicode="&#xca;" horiz-adv-x="564" 
d="M397 777l72 -125h-148l-39 61l-39 -61h-148l72 125h230zM31 363h502v-125h-502v125zM31 475v125h502v-125h-502zM31 125h502v-125h-502v125z" />
    <glyph glyph-name="FL00CBh" unicode="&#xcb;" horiz-adv-x="564" 
d="M97 777h155v-125h-155v125zM312 777h155v-125h-155v125zM31 363h502v-125h-502v125zM31 475v125h502v-125h-502zM31 125h502v-125h-502v125z" />
    <glyph glyph-name="FL00CCh" unicode="&#xcc;" horiz-adv-x="549" 
d="M518 0h-487v125h166v350h-166v125h487v-125h-166v-350h166v-125zM151 777h158l49 -125h-146z" />
    <glyph glyph-name="FL080Eh" unicode="&#xcd;" horiz-adv-x="549" 
d="M337 652h-146l49 125h158zM31 125h166v350h-166v125h487v-125h-166v-350h166v-125h-487v125z" />
    <glyph glyph-name="FL00CEh" unicode="&#xce;" horiz-adv-x="549" 
d="M389 777l72 -125h-148l-39 61l-39 -61h-148l72 125h230zM31 125h166v350h-166v125h487v-125h-166v-350h166v-125h-487v125z" />
    <glyph glyph-name="FL00CFh" unicode="&#xcf;" horiz-adv-x="549" 
d="M89 777h155v-125h-155v125zM304 777h155v-125h-155v125zM31 125h166v350h-166v125h487v-125h-166v-350h166v-125h-487v125z" />
    <glyph glyph-name="FL00D0h" unicode="&#xd0;" horiz-adv-x="692" 
d="M31 363h80v237h430q19 0 40.5 -8.5t39 -22.5t29 -32t11.5 -37v-400q0 -19 -11.5 -37t-29 -32t-39 -22.5t-40.5 -8.5h-430v238h-80v125zM266 475v-112h79v-125h-79v-113h208q12 1 22 9.5t10 28.5v274q0 20 -10 28.5t-22 9.5h-208z" />
    <glyph glyph-name="FL00D1h" unicode="&#xd1;" 
d="M294 652h176l72 125h-148l-39 -61l-38 61h-176l-72 -125h148l39 61zM494 0h86v600h-155v-338l-239 338h-155v-600h155v338l194 -271q26 -35 56.5 -51t57.5 -16z" />
    <glyph glyph-name="FL00D2h" unicode="&#xd2;" 
d="M178 777h158l49 -125h-146zM581 500v-400q0 -19 -11.5 -37t-29 -32t-39 -22.5t-40.5 -8.5h-310q-20 0 -41 8.5t-38.5 22.5t-29 32t-11.5 37v400q0 19 11.5 37t29 32t38.5 22.5t41 8.5h310q19 0 40.5 -8.5t39 -22.5t29 -32t11.5 -37zM186 437v-274q0 -22 11 -30t25 -8h172
q12 1 22 9.5t10 28.5v274q0 20 -10 28.5t-22 9.5h-172q-14 0 -25 -8t-11 -30z" />
    <glyph glyph-name="FL00D4h" unicode="&#xd3;" 
d="M373 652h-146l49 125h158zM581 500v-400q0 -19 -11.5 -37t-29 -32t-39 -22.5t-40.5 -8.5h-310q-20 0 -41 8.5t-38.5 22.5t-29 32t-11.5 37v400q0 19 11.5 37t29 32t38.5 22.5t41 8.5h310q19 0 40.5 -8.5t39 -22.5t29 -32t11.5 -37zM186 437v-274q0 -22 11 -30t25 -8h172
q12 1 22 9.5t10 28.5v274q0 20 -10 28.5t-22 9.5h-172q-14 0 -25 -8t-11 -30z" />
    <glyph glyph-name="FL00D6h" unicode="&#xd4;" 
d="M581 500v-400q0 -19 -11.5 -37t-29 -32t-39 -22.5t-40.5 -8.5h-310q-20 0 -41 8.5t-38.5 22.5t-29 32t-11.5 37v400q0 19 11.5 37t29 32t38.5 22.5t41 8.5h310q19 0 40.5 -8.5t39 -22.5t29 -32t11.5 -37zM186 437v-274q0 -22 11 -30t25 -8h172q12 1 22 9.5t10 28.5v274
q0 20 -10 28.5t-22 9.5h-172q-14 0 -25 -8t-11 -30zM421 777l72 -125h-148l-39 61l-39 -61h-148l72 125h230z" />
    <glyph glyph-name="FL00D7h" unicode="&#xd5;" 
d="M186 163q0 -22 11 -30t25 -8h172q12 1 22 9.5t10 28.5v274q0 20 -10 28.5t-22 9.5h-172q-14 0 -25 -8t-11 -30v-274zM581 100q0 -19 -11.5 -37t-29 -32t-39 -22.5t-40.5 -8.5h-310q-20 0 -41 8.5t-38.5 22.5t-29 32t-11.5 37v400q0 19 11.5 37t29 32t38.5 22.5t41 8.5
h310q19 0 40.5 -8.5t39 -22.5t29 -32t11.5 -37v-400zM256 713l-39 -61h-148l72 125h176l38 -61l39 61h148l-72 -125h-176z" />
    <glyph glyph-name="FL00D8h" unicode="&#xd6;" 
d="M121 777h155v-125h-155v125zM336 777h155v-125h-155v125zM581 500v-400q0 -19 -11.5 -37t-29 -32t-39 -22.5t-40.5 -8.5h-310q-20 0 -41 8.5t-38.5 22.5t-29 32t-11.5 37v400q0 19 11.5 37t29 32t38.5 22.5t41 8.5h310q19 0 40.5 -8.5t39 -22.5t29 -32t11.5 -37zM186 437
v-274q0 -22 11 -30t25 -8h172q12 1 22 9.5t10 28.5v274q0 20 -10 28.5t-22 9.5h-172q-14 0 -25 -8t-11 -30z" />
    <glyph glyph-name="FL00DDh" unicode="&#xd7;" horiz-adv-x="388" 
d="M115 467l-88 -88l79 -79l-80 -80l89 -89l79 80l80 -79l88 89l-79 79l78 78l-88 89l-79 -79z" />
    <glyph glyph-name="FL00E1h" unicode="&#xd8;" 
d="M31 100v400q0 19 11.5 37t29 32t38.5 22.5t41 8.5h310q19 0 40.5 -8.5t39 -22.5t29 -32t11.5 -37v-400q0 -19 -11.5 -37t-29 -32t-39 -22.5t-40.5 -8.5h-310q-20 0 -41 8.5t-38.5 22.5t-29 32t-11.5 37zM218 475q-12 -1 -22 -9.5t-10 -28.5v-203l149 241h-117zM394 125
q12 1 22 9.5t10 28.5v203l-149 -241h117z" />
    <glyph glyph-name="FL00D9h" unicode="&#xd9;" 
d="M178 777h158l49 -125h-146zM31 600h155v-437q0 -22 11 -30t25 -8h204v475h155v-600h-430q-20 0 -41 8.5t-38.5 22.5t-29 32t-11.5 37v500z" />
    <glyph glyph-name="FL00DAh" unicode="&#xda;" 
d="M373 652h-146l49 125h158zM31 600h155v-437q0 -22 11 -30t25 -8h204v475h155v-600h-430q-20 0 -41 8.5t-38.5 22.5t-29 32t-11.5 37v500z" />
    <glyph glyph-name="FL00DBh" unicode="&#xdb;" 
d="M421 777l72 -125h-148l-39 61l-39 -61h-148l72 125h230zM31 600h155v-437q0 -22 11 -30t25 -8h204v475h155v-600h-430q-20 0 -41 8.5t-38.5 22.5t-29 32t-11.5 37v500z" />
    <glyph glyph-name="FL00DCh" unicode="&#xdc;" 
d="M121 777h155v-125h-155v125zM336 777h155v-125h-155v125zM31 600h155v-437q0 -22 11 -30t25 -8h204v475h155v-600h-430q-20 0 -41 8.5t-38.5 22.5t-29 32t-11.5 37v500z" />
    <glyph glyph-name="FL068Dh" unicode="&#xdd;" horiz-adv-x="592" 
d="M363 652h-146l49 125h158zM200 600l96 -156l96 156h179l-198 -321v-279h-155v281l-197 319h179z" />
    <glyph glyph-name="FL00DEh" unicode="&#xde;" 
d="M31 600v-600h155v356h208q12 -1 22 -9.5t10 -28.5v-36q0 -20 -10 -28.5t-22 -9.5h-162v-125h229q19 0 40.5 8.5t39 22.5t29 32t11.5 37v162q0 19 -11.5 37t-29 32t-39 22.5t-40.5 8.5h-275v119h-155z" />
    <glyph glyph-name="FL00DFh" unicode="&#xdf;" 
d="M31 500q0 19 11.5 37t29 32t38.5 22.5t41 8.5h310q19 0 40.5 -8.5t39 -22.5t29 -32t11.5 -37v-119q0 -26 -16.5 -46.5t-43.5 -34.5q55 -28 60 -76v-124q0 -19 -11.5 -37t-29 -32t-39 -22.5t-40.5 -8.5h-228v125h161q12 1 22 9.5t10 28.5v36q0 19 -9.5 28t-20.5 11h-163
v125h161q12 1 22 9.5t10 28.5v36q0 20 -10 28.5t-22 9.5h-176q-12 -1 -22 -9.5t-10 -28.5v-437h-155v500z" />
    <glyph glyph-name="FL00E0h" unicode="&#xe0;" horiz-adv-x="700" 
d="M208 777h158l49 -125h-146zM26 25q0 2 0.5 8t0.5 7l187 480q15 38 51.5 59.5t82.5 21.5q20 0 40.5 -6.5t38.5 -17.5t31.5 -26t19.5 -31l201 -520h-165l-168 444l-120 -319h144l48 -125h-371q-16 0 -18.5 7t-2.5 18z" />
    <glyph glyph-name="FL09DFh" unicode="&#xe1;" horiz-adv-x="700" 
d="M403 652h-146l49 125h158zM26 25q0 2 0.5 8t0.5 7l187 480q15 38 51.5 59.5t82.5 21.5q20 0 40.5 -6.5t38.5 -17.5t31.5 -26t19.5 -31l201 -520h-165l-168 444l-120 -319h144l48 -125h-371q-16 0 -18.5 7t-2.5 18z" />
    <glyph glyph-name="FL00E2h" unicode="&#xe2;" horiz-adv-x="700" 
d="M465 777l72 -125h-148l-39 61l-39 -61h-148l72 125h230zM26 25q0 2 0.5 8t0.5 7l187 480q15 38 51.5 59.5t82.5 21.5q20 0 40.5 -6.5t38.5 -17.5t31.5 -26t19.5 -31l201 -520h-165l-168 444l-120 -319h144l48 -125h-371q-16 0 -18.5 7t-2.5 18z" />
    <glyph glyph-name="FL00E3h" unicode="&#xe3;" horiz-adv-x="700" 
d="M300 713l-39 -61h-148l72 125h176l38 -61l39 61h148l-72 -125h-176zM26 25q0 2 0.5 8t0.5 7l187 480q15 38 51.5 59.5t82.5 21.5q20 0 40.5 -6.5t38.5 -17.5t31.5 -26t19.5 -31l201 -520h-165l-168 444l-120 -319h144l48 -125h-371q-16 0 -18.5 7t-2.5 18z" />
    <glyph glyph-name="FL00E4h" unicode="&#xe4;" horiz-adv-x="700" 
d="M165 777h155v-125h-155v125zM380 777h155v-125h-155v125zM26 25q0 2 0.5 8t0.5 7l187 480q15 38 51.5 59.5t82.5 21.5q20 0 40.5 -6.5t38.5 -17.5t31.5 -26t19.5 -31l201 -520h-165l-168 444l-120 -319h144l48 -125h-371q-16 0 -18.5 7t-2.5 18z" />
    <glyph glyph-name="FL00E5h" unicode="&#xe5;" horiz-adv-x="700" 
d="M327 695h45v39h-45v-39zM272 777h155v-125h-155v125zM26 25q0 2 0.5 8t0.5 7l187 480q15 38 51.5 59.5t82.5 21.5q20 0 40.5 -6.5t38.5 -17.5t31.5 -26t19.5 -31l201 -520h-165l-168 444l-120 -319h144l48 -125h-371q-16 0 -18.5 7t-2.5 18z" />
    <glyph glyph-name="FL00E6h" unicode="&#xe6;" horiz-adv-x="1092" 
d="M714 163v75h347v125h-347v74q0 22 11 30t25 8h311v125h-382q-20 0 -41 -8.5t-38.5 -22.5t-29 -32t-11.5 -37v-190l-81 210q-6 16 -19.5 31t-31.5 26t-38.5 17.5t-40.5 6.5q-46 0 -82.5 -21.5t-51.5 -59.5l-187 -480q0 -1 -0.5 -7t-0.5 -8q0 -11 2.5 -18t18.5 -7h371
l-48 125h-144l120 319l168 -444h547v125h-311q-14 0 -25 8t-11 30z" />
    <glyph glyph-name="FL00E7h" unicode="&#xe7;" horiz-adv-x="564" 
d="M212 -48h60v48h-121q-20 0 -41 8.5t-38.5 22.5t-29 32t-11.5 37v400q0 19 11.5 37t29 32t38.5 22.5t41 8.5h382v-125h-311q-14 0 -25 -8t-11 -30v-274q0 -22 11 -30t25 -8h311v-125h-138v-169h-183v121z" />
    <glyph glyph-name="FL0C1Eh" unicode="&#xe8;" horiz-adv-x="564" 
d="M186 163q0 -22 11 -30t25 -8h311v-125h-382q-20 0 -41 8.5t-38.5 22.5t-29 32t-11.5 37v400q0 19 11.5 37t29 32t38.5 22.5t41 8.5h382v-125h-311q-14 0 -25 -8t-11 -30v-74h347v-125h-347v-75zM178 777h158l49 -125h-146z" />
    <glyph glyph-name="FL00E9h" unicode="&#xe9;" horiz-adv-x="564" 
d="M186 163q0 -22 11 -30t25 -8h311v-125h-382q-20 0 -41 8.5t-38.5 22.5t-29 32t-11.5 37v400q0 19 11.5 37t29 32t38.5 22.5t41 8.5h382v-125h-311q-14 0 -25 -8t-11 -30v-74h347v-125h-347v-75zM373 652h-146l49 125h158z" />
    <glyph glyph-name="FL00EAh" unicode="&#xea;" horiz-adv-x="564" 
d="M186 163q0 -22 11 -30t25 -8h311v-125h-382q-20 0 -41 8.5t-38.5 22.5t-29 32t-11.5 37v400q0 19 11.5 37t29 32t38.5 22.5t41 8.5h382v-125h-311q-14 0 -25 -8t-11 -30v-74h347v-125h-347v-75zM421 777l72 -125h-148l-39 61l-39 -61h-148l72 125h230z" />
    <glyph glyph-name="FL00EBh" unicode="&#xeb;" horiz-adv-x="564" 
d="M186 163q0 -22 11 -30t25 -8h311v-125h-382q-20 0 -41 8.5t-38.5 22.5t-29 32t-11.5 37v400q0 19 11.5 37t29 32t38.5 22.5t41 8.5h382v-125h-311q-14 0 -25 -8t-11 -30v-74h347v-125h-347v-75zM121 777h155v-125h-155v125zM336 777h155v-125h-155v125z" />
    <glyph glyph-name="FL00ECh" unicode="&#xec;" horiz-adv-x="217" 
d="M5 777h158l49 -125h-146zM31 600h155v-600h-155v600z" />
    <glyph glyph-name="FL00EDh" unicode="&#xed;" horiz-adv-x="217" 
d="M151 652h-146l49 125h158zM31 600h155v-600h-155v600z" />
    <glyph glyph-name="FL00EEh" unicode="&#xee;" horiz-adv-x="217" 
d="M224 777l72 -125h-148l-39 61l-39 -61h-148l72 125h230zM31 600h155v-600h-155v600z" />
    <glyph glyph-name="FL00EFh" unicode="&#xef;" horiz-adv-x="217" 
d="M-76 777h155v-125h-155v125zM139 777h155v-125h-155v125zM31 600h155v-600h-155v600z" />
    <glyph glyph-name="FL00F0h" unicode="&#xf0;" 
d="M31 100q0 -19 11.5 -37t29 -32t38.5 -22.5t41 -8.5h430v500q0 19 -11.5 37t-29 32t-39 22.5t-40.5 8.5h-430v-125h359q14 0 25 -8t11 -30v-71h-275q-20 0 -41 -8.5t-38.5 -22.5t-29 -32t-11.5 -37v-166zM222 241h204v-116h-208q-12 1 -22 9.5t-10 28.5v40q0 22 11 30
t25 8z" />
    <glyph glyph-name="FL00F1h" unicode="&#xf1;" 
d="M256 713l-39 -61h-148l72 125h176l38 -61l39 61h148l-72 -125h-176zM186 475v-475h-155v600h430q19 0 40.5 -8.5t39 -22.5t29 -32t11.5 -37v-500h-155v437q0 20 -10 28.5t-22 9.5h-208z" />
    <glyph glyph-name="FL00F2h" unicode="&#xf2;" 
d="M178 777h158l49 -125h-146zM581 500v-400q0 -19 -11.5 -37t-29 -32t-39 -22.5t-40.5 -8.5h-310q-20 0 -41 8.5t-38.5 22.5t-29 32t-11.5 37v400q0 19 11.5 37t29 32t38.5 22.5t41 8.5h310q19 0 40.5 -8.5t39 -22.5t29 -32t11.5 -37zM186 437v-274q0 -22 11 -30t25 -8h172
q12 1 22 9.5t10 28.5v274q0 20 -10 28.5t-22 9.5h-172q-14 0 -25 -8t-11 -30z" />
    <glyph glyph-name="FL00F3h" unicode="&#xf3;" 
d="M373 652h-146l49 125h158zM581 500v-400q0 -19 -11.5 -37t-29 -32t-39 -22.5t-40.5 -8.5h-310q-20 0 -41 8.5t-38.5 22.5t-29 32t-11.5 37v400q0 19 11.5 37t29 32t38.5 22.5t41 8.5h310q19 0 40.5 -8.5t39 -22.5t29 -32t11.5 -37zM186 437v-274q0 -22 11 -30t25 -8h172
q12 1 22 9.5t10 28.5v274q0 20 -10 28.5t-22 9.5h-172q-14 0 -25 -8t-11 -30z" />
    <glyph glyph-name="FL00F4h" unicode="&#xf4;" 
d="M581 500v-400q0 -19 -11.5 -37t-29 -32t-39 -22.5t-40.5 -8.5h-310q-20 0 -41 8.5t-38.5 22.5t-29 32t-11.5 37v400q0 19 11.5 37t29 32t38.5 22.5t41 8.5h310q19 0 40.5 -8.5t39 -22.5t29 -32t11.5 -37zM186 437v-274q0 -22 11 -30t25 -8h172q12 1 22 9.5t10 28.5v274
q0 20 -10 28.5t-22 9.5h-172q-14 0 -25 -8t-11 -30zM421 777l72 -125h-148l-39 61l-39 -61h-148l72 125h230z" />
    <glyph glyph-name="FL00F5h" unicode="&#xf5;" 
d="M186 163q0 -22 11 -30t25 -8h172q12 1 22 9.5t10 28.5v274q0 20 -10 28.5t-22 9.5h-172q-14 0 -25 -8t-11 -30v-274zM581 100q0 -19 -11.5 -37t-29 -32t-39 -22.5t-40.5 -8.5h-310q-20 0 -41 8.5t-38.5 22.5t-29 32t-11.5 37v400q0 19 11.5 37t29 32t38.5 22.5t41 8.5
h310q19 0 40.5 -8.5t39 -22.5t29 -32t11.5 -37v-400zM256 713l-39 -61h-148l72 125h176l38 -61l39 61h148l-72 -125h-176z" />
    <glyph glyph-name="FL00F6h" unicode="&#xf6;" 
d="M121 777h155v-125h-155v125zM336 777h155v-125h-155v125zM581 500v-400q0 -19 -11.5 -37t-29 -32t-39 -22.5t-40.5 -8.5h-310q-20 0 -41 8.5t-38.5 22.5t-29 32t-11.5 37v400q0 19 11.5 37t29 32t38.5 22.5t41 8.5h310q19 0 40.5 -8.5t39 -22.5t29 -32t11.5 -37zM186 437
v-274q0 -22 11 -30t25 -8h172q12 1 22 9.5t10 28.5v274q0 20 -10 28.5t-22 9.5h-172q-14 0 -25 -8t-11 -30z" />
    <glyph glyph-name="FL00F7h" unicode="&#xf7;" horiz-adv-x="494" 
d="M169 534h155v-125h-155v125zM31 363h432v-125h-432v125zM169 192h155v-125h-155v125z" />
    <glyph glyph-name="FL00F8h" unicode="&#xf8;" 
d="M31 100v400q0 19 11.5 37t29 32t38.5 22.5t41 8.5h310q19 0 40.5 -8.5t39 -22.5t29 -32t11.5 -37v-400q0 -19 -11.5 -37t-29 -32t-39 -22.5t-40.5 -8.5h-310q-20 0 -41 8.5t-38.5 22.5t-29 32t-11.5 37zM218 475q-12 -1 -22 -9.5t-10 -28.5v-203l149 241h-117zM394 125
q12 1 22 9.5t10 28.5v203l-149 -241h117z" />
    <glyph glyph-name="FL00F9h" unicode="&#xf9;" 
d="M178 777h158l49 -125h-146zM31 600h155v-437q0 -22 11 -30t25 -8h172q12 1 22 9.5t10 28.5v437h155v-500q0 -19 -11.5 -37t-29 -32t-39 -22.5t-40.5 -8.5h-310q-20 0 -41 8.5t-38.5 22.5t-29 32t-11.5 37v500z" />
    <glyph glyph-name="FL00FAh" unicode="&#xfa;" 
d="M581 100q0 -19 -11.5 -37t-29 -32t-39 -22.5t-40.5 -8.5h-310q-20 0 -41 8.5t-38.5 22.5t-29 32t-11.5 37v500h155v-437q0 -20 10 -28.5t22 -9.5h172q14 0 25 8t11 30v437h155v-500zM373 652h-146l49 125h158z" />
    <glyph glyph-name="FL0562h" unicode="&#xfb;" 
d="M186 600v-437q0 -22 11 -30t25 -8h172q12 1 22 9.5t10 28.5v437h155v-500q0 -19 -11.5 -37t-29 -32t-39 -22.5t-40.5 -8.5h-310q-20 0 -41 8.5t-38.5 22.5t-29 32t-11.5 37v500h155zM421 777l72 -125h-148l-39 61l-39 -61h-148l72 125h230z" />
    <glyph glyph-name="FL00FCh" unicode="&#xfc;" 
d="M121 777h155v-125h-155v125zM336 777h155v-125h-155v125zM31 600h155v-437q0 -22 11 -30t25 -8h172q12 1 22 9.5t10 28.5v437h155v-500q0 -19 -11.5 -37t-29 -32t-39 -22.5t-40.5 -8.5h-310q-20 0 -41 8.5t-38.5 22.5t-29 32t-11.5 37v500z" />
    <glyph glyph-name="FL0649h" unicode="&#xfd;" horiz-adv-x="581" 
d="M355 652h-146l49 125h158zM31 600h155v-199q0 -22 11 -30t25 -8h173v237h155v-500q0 -19 -11.5 -37t-29 -32t-39 -22.5t-40.5 -8.5h-399v125h328q14 0 25 8t11 30v75h-244q-20 0 -41 8.5t-38.5 22.5t-29 32t-11.5 37v262z" />
    <glyph glyph-name="FL00FEh" unicode="&#xfe;" 
d="M31 600v-600h155v356h208q12 -1 22 -9.5t10 -28.5v-36q0 -20 -10 -28.5t-22 -9.5h-162l63 -125h166q19 0 40.5 8.5t39 22.5t29 32t11.5 37v162q0 19 -11.5 37t-29 32t-39 22.5t-40.5 8.5h-275v119h-155z" />
    <glyph glyph-name="FL00FFh" unicode="&#xff;" horiz-adv-x="581" 
d="M105 777h155v-125h-155v125zM320 777h155v-125h-155v125zM31 600h155v-199q0 -22 11 -30t25 -8h173v237h155v-500q0 -19 -11.5 -37t-29 -32t-39 -22.5t-40.5 -8.5h-399v125h328q14 0 25 8t11 30v75h-244q-20 0 -41 8.5t-38.5 22.5t-29 32t-11.5 37v262z" />
    </font>
</defs>
</svg>
